<?xml version="1.0" encoding="UTF-8"?>
<svg width="92px" height="17px" viewBox="0 0 92 17" version="1.1" xmlns="http://www.w3.org/2000/svg" xmlns:xlink="http://www.w3.org/1999/xlink">
    <!-- Generator: Sketch 47.1 (45422) - http://www.bohemiancoding.com/sketch -->
    <title>Group 3</title>
    <desc>Created with Sketch.</desc>
    <defs>
        <polygon id="path-1" points="7 15 14 15 14 0 7 0 0 0 0 15"></polygon>
        <polygon id="path-3" points="1.469 0.0935639978 1.469 5.57581483 0.253320676 5.57581483 0.253320676 0.0935639978 1.469 0.0935639978"></polygon>
        <polygon id="path-5" points="4.16295045 3 0.708019371 3 0.708019371 0.9124 4.16295045 0.9124 4.16295045 3"></polygon>
    </defs>
    <g id="Page-1" stroke="none" stroke-width="1" fill="none" fill-rule="evenodd">
        <g id="Group-3" transform="translate(-2.000000, 1.000000)">
            <g id="Page-1" transform="translate(34.000000, 0.000000)" fill="#FEFEFE">
                <g id="Group-2">
                    <path d="M13.8782417,7.11377246 L11.9859695,5.05688623 L11.9151214,4.96706587 L7.48397587,0.143712575 C7.40415965,0.0538922156 7.28667734,0 7.16202054,0 C7.03557013,0 6.91988144,0.0538922156 6.82930348,0.143712575 L2.83849239,4.29341317 L2.83849239,0.952095808 C2.83849239,0.700598802 2.63222574,0.502994012 2.39008664,0.502994012 C2.13897943,0.502994012 1.9416809,0.700598802 1.9416809,0.952095808 L1.9416809,5.21856287 L1.95064902,5.21856287 C1.9416809,5.24550898 1.9416809,5.27245509 1.9416809,5.30838323 L1.9416809,5.21856287 L0.130121706,7.10479042 C-0.0492405905,7.28443114 -0.0402724757,7.56287425 0.139089821,7.74251497 C0.318452118,7.91317365 0.596463677,7.90419162 0.775825974,7.7245509 L1.9416809,6.51197605 L1.9416809,15 L12.0577144,15 L12.0577144,6.4491018 L13.2244662,7.71556886 C13.3132505,7.81437126 13.429836,7.86826347 13.5464215,7.86826347 C13.663007,7.86826347 13.7706244,7.82335329 13.8513374,7.74251497 C14.0396678,7.58083832 14.0495327,7.29341317 13.8782417,7.11377246 L13.8782417,7.11377246 Z M11.1609029,14.1017964 L8.38078735,14.1017964 C8.40858851,14.0299401 8.42562792,13.9491018 8.42562792,13.8682635 L8.42562792,11.5598802 C8.42562792,11.1916168 8.12071202,10.8862275 7.75301931,10.8862275 L6.24727283,10.8862275 C5.87868331,10.8862275 5.57466422,11.1916168 5.57466422,11.5598802 L5.57466422,13.8682635 C5.57466422,13.9491018 5.59260045,14.0299401 5.61860798,14.1017964 L2.83849239,14.1017964 L2.83849239,5.57784431 L3.09856772,5.30838323 L7.14408432,1.10479042 L11.008445,5.30838323 L11.1609029,5.47005988 L11.1609029,14.1017964 Z" id="Fill-5"></path>
                    <path d="M4.34973169,8.4375 C4.00973418,8.4375 3.73333333,8.05106707 3.73333333,7.57431402 L3.73333333,7.42568598 C3.73333333,6.94893293 4.00973418,6.5625 4.34973169,6.5625 L9.65108366,6.5625 C9.99108116,6.5625 10.2666667,6.94893293 10.2666667,7.42568598 L10.2666667,7.57431402 C10.2666667,8.05106707 9.99108116,8.4375 9.65108366,8.4375 L4.34973169,8.4375 Z" id="Fill-1"></path>
                </g>
            </g>
            <g id="Page-1" transform="translate(66.000000, 0.000000)">
                <mask id="mask-2" fill="white">
                    <use xlink:href="#path-1"></use>
                </mask>
                <g id="Clip-2"></g>
                <path d="M13.6324387,7.135506 L11.8028005,7.135506 C11.6231039,4.62264151 9.70361727,2.60720412 7.30221704,2.44425386 L7.30221704,0.38593482 C7.30221704,0.171526587 7.13885648,0 6.93465578,0 C6.73045508,0 6.56709452,0.171526587 6.56709452,0.38593482 L6.56709452,2.44425386 C4.19836639,2.65008576 2.3033839,4.63979417 2.13185531,7.135506 L0.36756126,7.135506 C0.16336056,7.135506 0,7.30703259 0,7.52144082 C0,7.73584906 0.16336056,7.90737564 0.36756126,7.90737564 L2.13185531,7.90737564 C2.3033839,10.4030875 4.19836639,12.4013722 6.56709452,12.6072041 L6.56709452,14.6140652 C6.56709452,14.8284734 6.73045508,15 6.93465578,15 C7.13885648,15 7.30221704,14.8284734 7.30221704,14.6140652 L7.30221704,12.6072041 C9.70361727,12.4356775 11.6231039,10.4288165 11.8028005,7.90737564 L13.6324387,7.90737564 C13.8366394,7.90737564 14,7.73584906 14,7.52144082 C14,7.30703259 13.8366394,7.135506 13.6324387,7.135506 L13.6324387,7.135506 Z M6.56709452,11.9039451 C4.56592765,11.7066895 2.97316219,10.0171527 2.80163361,7.90737564 L4.41073512,7.90737564 C4.56592765,9.09090909 5.44807468,10.025729 6.56709452,10.1972556 L6.56709452,11.9039451 Z M6.56709452,9.41680961 C5.85647608,9.25385935 5.29288215,8.66209262 5.15402567,7.90737564 L6.56709452,7.90737564 L6.56709452,9.41680961 Z M6.56709452,7.135506 L5.15402567,7.135506 C5.29288215,6.38078902 5.85647608,5.7890223 6.56709452,5.62607204 L6.56709452,7.135506 Z M6.56709452,4.84562607 C5.44807468,5.01715266 4.56592765,5.95197256 4.41073512,7.135506 L2.80163361,7.135506 C2.97316219,5.02572899 4.56592765,3.34476844 6.56709452,3.14751286 L6.56709452,4.84562607 Z M7.30221704,3.13893654 C9.33605601,3.31046312 10.9614936,5 11.1330222,7.135506 L9.52392065,7.135506 C9.36872812,5.9348199 8.45390898,4.98284734 7.30221704,4.82847341 L7.30221704,3.13893654 Z M7.30221704,5.60891938 C8.04550758,5.74614065 8.6336056,6.36363636 8.78063011,7.135506 L7.30221704,7.135506 L7.30221704,5.60891938 Z M7.30221704,7.90737564 L8.78063011,7.90737564 C8.6336056,8.67924528 8.04550758,9.29674099 7.30221704,9.43396226 L7.30221704,7.90737564 Z M7.30221704,11.9125214 L7.30221704,10.2144082 C8.45390898,10.0600343 9.36872812,9.10806175 9.52392065,7.90737564 L11.1330222,7.90737564 C10.9614936,10.0428816 9.33605601,11.7409949 7.30221704,11.9125214 L7.30221704,11.9125214 Z" id="Fill-1" fill="#FEFEFE" mask="url(#mask-2)"></path>
            </g>
            <g id="Page-1" transform="translate(50.000000, 0.000000)">
                <path d="M13.9989543,3.8027014 C13.9989543,3.79208876 13.9968629,3.78147612 13.9947714,3.77086348 C13.9937257,3.76700434 13.99268,3.7631452 13.9916343,3.75928606 C13.9874514,3.74770863 13.9822229,3.73613121 13.9759486,3.72551857 C13.9749029,3.723589 13.9749029,3.72165943 13.9738572,3.71972986 C13.9728115,3.71972986 13.9728115,3.71876507 13.9728115,3.71876507 C13.9654915,3.70718765 13.9560801,3.69561023 13.9466687,3.68692716 C13.9435315,3.6840328 13.9403944,3.68210323 13.9372572,3.67920888 C13.9288915,3.67149059 13.9205258,3.66570188 13.9100687,3.65894838 C13.9079773,3.6579836 13.9058859,3.65605403 13.9037944,3.65508924 L7.18718255,0.024602026 C7.12653122,-0.00820067535 7.05228563,-0.00820067535 6.9916343,0.024602026 L0.0962055572,3.71394115 C0.0941141321,3.71490593 0.0930684195,3.7168355 0.0909769943,3.71876507 C0.0805198685,3.72455379 0.0711084553,3.7303425 0.0627427547,3.73806078 C0.059605617,3.74095514 0.0564684792,3.74384949 0.0533313415,3.74674385 C0.0439199283,3.75542692 0.0355542277,3.76603956 0.0282342396,3.77665219 C0.027188527,3.77761698 0.0261428145,3.77954655 0.0250971019,3.78051134 L0.0250971019,3.78147612 C0.0177771138,3.79305355 0.0115028384,3.80656054 0.00731998805,3.81910275 C0.00731998805,3.82296189 0.00627427547,3.82682103 0.00522856289,3.82971539 C0.00313713774,3.84129281 0.00104571258,3.85190545 0.00104571258,3.86251809 C0.00104571258,3.86541245 0,3.86734202 0,3.86927159 L0,11.0713941 C0,11.1350699 0.0355542277,11.1929571 0.0951598446,11.2257598 L6.99058859,14.9758804 C6.99268001,14.9778099 6.99477144,14.9778099 6.99686286,14.9778099 C7.00731999,14.9835986 7.01986854,14.9874578 7.03137138,14.9913169 C7.03555423,14.9922817 7.03869137,14.9932465 7.04287422,14.9942113 C7.05751419,14.9980704 7.07319988,15 7.08888557,15 C7.10561697,15 7.12130266,14.9980704 7.13594264,14.9942113 C7.14012549,14.9932465 7.14430834,14.9922817 7.14744547,14.9903521 C7.15999402,14.9874578 7.17254258,14.9826339 7.1829997,14.9778099 L7.18927398,14.9749156 L13.9069316,11.224795 C13.9654915,11.1919923 14,11.1341052 14,11.0713941 L14,3.8094549 C14,3.80752533 13.9989543,3.80559575 13.9989543,3.8027014 L13.9989543,3.8027014 Z M7.08679414,7.26049204 L4.02181058,5.65991317 L10.219749,2.07959479 L13.4217209,3.81041968 L7.08679414,7.26049204 Z M7.08783986,0.387361312 L9.84015536,1.8750603 L3.63594264,5.45923782 L0.585599044,3.86734202 L7.08783986,0.387361312 Z M7.28338811,14.5021708 L7.28338811,12.6777617 C7.28338811,12.5783888 7.19659396,12.4983116 7.08888557,12.4983116 C6.98117717,12.4983116 6.89438303,12.5783888 6.89438303,12.6777617 L6.89438303,14.5069947 L0.389005079,10.9681621 L0.389005079,4.17703811 L6.89438303,7.5721177 L6.89438303,11.4872166 C6.89438303,11.5865895 6.98117717,11.6676315 7.08888557,11.6676315 C7.19659396,11.6676315 7.28338811,11.5865895 7.28338811,11.4872166 L7.28338811,7.56922335 L13.6120406,4.12397492 L13.6120406,10.9700917 L7.28338811,14.5021708 Z" id="Fill-1" fill="#FEFEFE"></path>
                <path d="M13.9989543,3.8027014 C13.9989543,3.79208876 13.9968629,3.78147612 13.9947714,3.77086348 C13.9937257,3.76700434 13.99268,3.7631452 13.9916343,3.75928606 C13.9874514,3.74770863 13.9822229,3.73613121 13.9759486,3.72551857 C13.9749029,3.723589 13.9749029,3.72165943 13.9738572,3.71972986 C13.9728115,3.71972986 13.9728115,3.71876507 13.9728115,3.71876507 C13.9654915,3.70718765 13.9560801,3.69561023 13.9466687,3.68692716 C13.9435315,3.6840328 13.9403944,3.68210323 13.9372572,3.67920888 C13.9288915,3.67149059 13.9205258,3.66570188 13.9100687,3.65894838 C13.9079773,3.6579836 13.9058859,3.65605403 13.9037944,3.65508924 L7.18718255,0.024602026 C7.12653122,-0.00820067535 7.05228563,-0.00820067535 6.9916343,0.024602026 L0.0962055572,3.71394115 C0.0941141321,3.71490593 0.0930684195,3.7168355 0.0909769943,3.71876507 C0.0805198685,3.72455379 0.0711084553,3.7303425 0.0627427547,3.73806078 C0.059605617,3.74095514 0.0564684792,3.74384949 0.0533313415,3.74674385 C0.0439199283,3.75542692 0.0355542277,3.76603956 0.0282342396,3.77665219 C0.027188527,3.77761698 0.0261428145,3.77954655 0.0250971019,3.78051134 L0.0250971019,3.78147612 C0.0177771138,3.79305355 0.0115028384,3.80656054 0.00731998805,3.81910275 C0.00731998805,3.82296189 0.00627427547,3.82682103 0.00522856289,3.82971539 C0.00313713774,3.84129281 0.00104571258,3.85190545 0.00104571258,3.86251809 C0.00104571258,3.86541245 0,3.86734202 0,3.86927159 L0,11.0713941 C0,11.1350699 0.0355542277,11.1929571 0.0951598446,11.2257598 L6.99058859,14.9758804 C6.99268001,14.9778099 6.99477144,14.9778099 6.99686286,14.9778099 C7.00731999,14.9835986 7.01986854,14.9874578 7.03137138,14.9913169 C7.03555423,14.9922817 7.03869137,14.9932465 7.04287422,14.9942113 C7.05751419,14.9980704 7.07319988,15 7.08888557,15 C7.10561697,15 7.12130266,14.9980704 7.13594264,14.9942113 C7.14012549,14.9932465 7.14430834,14.9922817 7.14744547,14.9903521 C7.15999402,14.9874578 7.17254258,14.9826339 7.1829997,14.9778099 L7.18927398,14.9749156 L13.9069316,11.224795 C13.9654915,11.1919923 14,11.1341052 14,11.0713941 L14,3.8094549 C14,3.80752533 13.9989543,3.80559575 13.9989543,3.8027014 Z M7.08679414,7.26049204 L4.02181058,5.65991317 L10.219749,2.07959479 L13.4217209,3.81041968 L7.08679414,7.26049204 Z M7.08783986,0.387361312 L9.84015536,1.8750603 L3.63594264,5.45923782 L0.585599044,3.86734202 L7.08783986,0.387361312 Z M7.28338811,14.5021708 L7.28338811,12.6777617 C7.28338811,12.5783888 7.19659396,12.4983116 7.08888557,12.4983116 C6.98117717,12.4983116 6.89438303,12.5783888 6.89438303,12.6777617 L6.89438303,14.5069947 L0.389005079,10.9681621 L0.389005079,4.17703811 L6.89438303,7.5721177 L6.89438303,11.4872166 C6.89438303,11.5865895 6.98117717,11.6676315 7.08888557,11.6676315 C7.19659396,11.6676315 7.28338811,11.5865895 7.28338811,11.4872166 L7.28338811,7.56922335 L13.6120406,4.12397492 L13.6120406,10.9700917 L7.28338811,14.5021708 Z" id="Stroke-3" stroke="#FEFEFE" stroke-width="0.25" stroke-linecap="round" stroke-linejoin="round"></path>
                <path d="M9.33503333,10 C9.21359011,10 9.09754437,9.92969594 9.03682277,9.80773993 C8.95316189,9.63413195 9.01658223,9.42035023 9.18120525,9.32852452 L11.5102162,8.04009508 C11.6748393,7.94970415 11.8772446,8.01713865 11.9622549,8.1921814 C12.0472651,8.36578938 11.9838448,8.58244066 11.8205711,8.67139681 L9.4888614,9.96126103 C9.43893474,9.98708701 9.38630935,10 9.33503333,10" id="Fill-5" fill="#FEFEFE"></path>
                <path d="M9.33503333,10 C9.21359011,10 9.09754437,9.92969594 9.03682277,9.80773993 C8.95316189,9.63413195 9.01658223,9.42035023 9.18120525,9.32852452 L11.5102162,8.04009508 C11.6748393,7.94970415 11.8772446,8.01713865 11.9622549,8.1921814 C12.0472651,8.36578938 11.9838448,8.58244066 11.8205711,8.67139681 L9.4888614,9.96126103 C9.43893474,9.98708701 9.38630935,10 9.33503333,10 Z" id="Stroke-7" stroke="#FEFEFE" stroke-width="0.25" stroke-linecap="round" stroke-linejoin="round"></path>
            </g>
            <g id="Page-1" transform="translate(17.000000, 0.000000)" stroke-width="0.3" stroke="#FFFFFF" fill="#FEFEFE">
                <g id="Group-6">
                    <g transform="translate(1.000000, 1.000000)">
                        <path d="M7.96992552,13 C7.69163623,13 7.39015616,12.9572867 7.06816118,12.8710386 C5.27711984,12.3921563 3.21670873,10.6548734 2.48619934,9.39647268 L0.462358297,5.90629999 C-0.489355404,4.26512205 0.0690070861,2.26088074 1.76193361,1.24315328 L2.18471927,0.990158883 C2.46479247,0.821769755 2.81176213,0.770020902 3.13554102,0.848054887 C3.46021186,0.926910284 3.73493334,1.12815583 3.88924119,1.40168548 L4.73124469,2.89008108 C4.88466058,3.16114651 4.90785135,3.48231797 4.79457334,3.7698116 C4.68129533,4.05812664 4.4395761,4.28976437 4.13363627,4.40804746 L3.71174257,4.56904389 C3.43077742,4.67664865 3.21849264,4.89267958 3.1284054,5.16045936 C3.03831816,5.42823915 3.08202385,5.71655419 3.24881903,5.95147756 L5.41448058,9.00958839 C5.58930334,9.25683291 5.87294435,9.41125806 6.19315542,9.43343614 C6.51247455,9.45561422 6.81841438,9.34225959 7.03159111,9.12212161 C7.25725519,8.88884106 7.58103407,8.75577258 7.91997616,8.75577258 L7.92711178,8.75577258 C8.26962168,8.75823681 8.59429252,8.89541235 8.81817269,9.13362136 L10.2087272,10.6105172 C10.4442028,10.8594046 10.5432095,11.1887901 10.4825567,11.5132472 C10.421012,11.8393471 10.2078352,12.1194481 9.8965437,12.2812659 L8.94037023,12.7790406 C8.65851313,12.9268945 8.33384229,13 7.96992552,13 M2.83495291,1.03205081 C2.65210257,1.03205081 2.47014419,1.08051402 2.31494439,1.17415481 L1.89215873,1.42797061 C0.303590688,2.38244947 -0.219985641,4.26265782 0.672859172,5.80280228 L2.69670021,9.29297497 C3.40401883,10.5127694 5.40110128,12.1958392 7.13416569,12.6599361 C7.81472572,12.8422892 8.38200774,12.8176469 8.82263246,12.5884734 L9.77880592,12.0906987 C10.0285527,11.9609159 10.1989157,11.7374923 10.2479731,11.4771052 C10.2970305,11.2167181 10.2167548,10.9538668 10.0294447,10.754264 L8.63799821,9.27736817 C8.45871569,9.08680097 8.19915741,8.97673198 7.92621983,8.97508915 C7.65417421,8.97508915 7.39194007,9.08022968 7.20998168,9.26833266 C6.94596364,9.53939808 6.56866758,9.67985926 6.17531637,9.65275272 C5.7810732,9.62482476 5.43053573,9.43425755 5.21468314,9.12951431 L3.04902159,6.07058206 C2.84387243,5.78226702 2.78946331,5.42659633 2.90095742,5.09556795 C3.01155957,4.76536097 3.27379371,4.49922401 3.62076338,4.36697694 L4.04176513,4.2051591 C4.29061997,4.1106969 4.47882203,3.92916521 4.57069317,3.69588466 C4.66256432,3.46178271 4.64472526,3.21207395 4.51985186,2.99111456 L3.67784836,1.50354037 C3.55475886,1.2842238 3.33533846,1.12322736 3.07578018,1.06080017 C2.99639637,1.04190774 2.91522866,1.03205081 2.83495291,1.03205081" id="Fill-1"></path>
                        <path d="M12.3670813,8.9375 C12.287585,8.9375 12.2088999,8.91445861 12.1383266,8.87008259 L11.2014061,8.28380717 L10.0625,8.28380717 C7.89095334,8.28380717 6.125,6.42598826 6.125,4.14233028 C6.125,1.85781892 7.89095334,0 10.0625,0 C12.2332355,0 14,1.85781892 14,4.14233028 C14,5.29269312 13.0168418,6.99007567 12.8748841,7.22817006 L12.8132339,8.4911797 C12.8051221,8.65588298 12.7158915,8.80266519 12.5771786,8.88202998 C12.5114725,8.91957892 12.4392769,8.9375 12.3670813,8.9375 M10.0625,0.227853767 C8.01100896,0.227853767 6.34158684,1.98497326 6.34158684,4.14233028 C6.34158684,6.30054068 8.01100896,8.0559534 10.0625,8.0559534 L11.2622451,8.0559534 L12.2494592,8.67380407 C12.3192213,8.71818008 12.4035847,8.72074024 12.4749691,8.67977776 C12.5471647,8.63966867 12.59178,8.5645708 12.5966471,8.47837893 L12.661542,7.15648573 L12.6769546,7.13088418 C12.6875,7.1129631 13.7834132,5.28757281 13.7834132,4.14233028 C13.7834132,1.98497326 12.113991,0.227853767 10.0625,0.227853767" id="Fill-5"></path>
                        <path d="M13.122074,2.51592021 C13.1210987,2.51296096 13.1191481,2.51000171 13.1181728,2.50704245 C13.1171975,2.5040832 13.1162221,2.50038413 13.1142715,2.49816469 C13.1103702,2.49150637 13.1064689,2.48558787 13.1015924,2.48040917 L13.1015924,2.47966936 C13.0996417,2.47818973 13.0986664,2.47744992 13.0976911,2.47597029 C13.0928145,2.47227123 13.0898885,2.46931197 13.0859873,2.46635272 C13.0830613,2.46339347 13.07916,2.46117403 13.0762341,2.4596944 C13.0723328,2.45747496 13.0694068,2.45525552 13.0655056,2.45303608 L13.0538018,2.4485972 C13.0508758,2.44711757 13.0479498,2.44563795 13.0440486,2.44415832 C13.039172,2.44267869 13.0342954,2.44193888 13.0294188,2.44119907 C13.0255175,2.44045925 13.0225916,2.43897963 13.0186903,2.43897963 C13.0118631,2.43897963 13.0050358,2.43823981 12.9982086,2.43823981 C12.9972333,2.43823981 12.9952826,2.4375 12.9943073,2.4375 L12.993332,2.4375 L12.9923567,2.4375 L7.13069268,2.4375 C7.1267914,2.4375 7.12386545,2.43823981 7.11996417,2.43823981 C7.11508758,2.43897963 7.11021099,2.43897963 7.10533439,2.43897963 C7.1004578,2.43897963 7.09655653,2.44045925 7.09167994,2.44193888 C7.08875398,2.44267869 7.08485271,2.44341851 7.08095143,2.44415832 C7.07705016,2.44563795 7.07314889,2.44711757 7.06924761,2.44933701 C7.06534634,2.45081664 7.06242038,2.45155645 7.05851911,2.45303608 C7.05559315,2.45525552 7.05169188,2.45747496 7.04779061,2.4596944 C7.04486465,2.46191384 7.04193869,2.46339347 7.03901274,2.46635272 C7.03511146,2.46931197 7.03121019,2.47227123 7.0263336,2.47597029 C7.02535828,2.47744992 7.02438296,2.47818973 7.02243232,2.47966936 L7.02243232,2.48040917 C7.01755573,2.48558787 7.01365446,2.49150637 7.0107285,2.49816469 C7.00877787,2.50038413 7.00780255,2.5040832 7.00585191,2.50704245 C7.00487659,2.51000171 7.00292596,2.51296096 7.00292596,2.51592021 C7.00097532,2.52257853 7,2.52997667 7,2.53515536 L7,2.53589517 L7,5.58836501 C7,5.64385101 7.05851911,5.6875 7.13069268,5.6875 L12.9943073,5.6875 C13.0655056,5.6875 13.125,5.64385101 13.125,5.58836501 L13.125,2.53589517 L13.125,2.53515536 C13.125,2.52997667 13.1240247,2.52257853 13.122074,2.51592021 L13.122074,2.51592021 Z M12.5739451,2.63429035 L10.0625,3.94228033 L7.55007962,2.63429035 L12.5739451,2.63429035 Z M7.26041003,5.49070965 L7.26041003,2.72306795 L9.9883758,4.14350956 C10.0108081,4.15534657 10.0371417,4.16200489 10.0625,4.16200489 C10.0878583,4.16200489 10.1141919,4.15534657 10.1356489,4.14350956 L12.8636146,2.72306795 L12.8636146,5.49070965 L7.26041003,5.49070965 Z" id="Fill-9"></path>
                    </g>
                </g>
            </g>
            <g id="Page-1" transform="translate(0.500000, 0.000000)">
                <path d="M11.8813,10.3489 C11.9773,9.6369 12.0233,8.9139 12.1783,8.2159 C12.6573,6.0619 10.7053,4.1599 8.9763,3.8909 C7.2173,3.6179 5.8463,4.2019 4.8113,5.6209 C4.5763,5.9439 4.3723,6.2869 4.1563,6.6209 C3.7673,7.2249 3.2863,7.7369 2.6743,8.1199 C2.4393,8.2659 2.2213,8.2619 2.0763,8.0189 C1.9453,7.8019 2.0133,7.5989 2.2353,7.4599 C2.8863,7.0529 3.3383,6.4679 3.7243,5.8169 C4.1823,5.0469 4.7353,4.3569 5.4813,3.8399 C8.2763,1.9009 12.4323,3.5859 12.9963,6.9349 C13.1133,7.6329 12.9113,8.3869 12.8413,9.1149 C12.8003,9.5359 12.7003,9.9519 12.6763,10.3719 C12.6433,10.9279 12.8973,11.3919 13.2473,11.8049 C13.3893,11.9709 13.5923,12.1009 13.6843,12.2889 C13.7583,12.4409 13.7083,12.6549 13.7133,12.8399 C13.5273,12.8439 13.2663,12.9309 13.1643,12.8389 C12.4293,12.1799 11.8373,11.4289 11.8813,10.3489" id="Fill-1" fill="#FEFEFE"></path>
                <path d="M8.1645,6.1028 C9.1135,6.1088 9.8995,6.8208 10.1015,7.8288 C10.2415,8.5248 10.0565,9.1498 9.7365,9.7518 C9.1375,10.8858 8.2735,11.8078 7.3355,12.6548 C6.5145,13.3948 5.6395,14.0768 4.7855,14.7808 C4.5605,14.9648 4.2885,15.0988 4.0825,14.8038 C3.8895,14.5258 4.0785,14.3118 4.3195,14.1308 C5.8175,13.0088 7.2705,11.8308 8.4035,10.3258 C8.7825,9.8228 9.0795,9.2338 9.2995,8.6428 C9.5415,7.9928 9.1325,7.2048 8.5465,6.9728 C7.9575,6.7388 7.3305,7.0378 6.9415,7.6958 C6.5125,8.4218 6.1635,9.2438 5.5815,9.8258 C4.6865,10.7188 3.6245,11.4458 2.6285,12.2358 C2.4385,12.3858 2.2185,12.3568 2.0855,12.1598 C1.9505,11.9568 1.9775,11.7418 2.1945,11.5828 C2.6005,11.2898 3.0015,10.9878 3.4145,10.7038 C4.6405,9.8618 5.5955,8.8028 6.2045,7.4268 C6.5895,6.5578 7.3315,6.0978 8.1645,6.1028" id="Fill-3" fill="#FEFEFE"></path>
                <path d="M10.3139,10.8997 C10.4509,10.0577 10.5759,9.2867 10.6999,8.5157 C10.9199,7.1437 10.4039,6.1197 9.2139,5.5667 C8.1339,5.0637 6.9019,5.3567 6.0619,6.3627 C5.7689,6.7137 5.5209,7.1167 5.3229,7.5307 C4.7409,8.7457 3.7439,9.5447 2.6489,10.2397 C2.5209,10.3207 2.1859,10.2727 2.0849,10.1597 C1.9179,9.9727 2.0119,9.7457 2.2409,9.5787 C2.6979,9.2457 3.1829,8.9327 3.5699,8.5277 C3.9809,8.0987 4.3539,7.6057 4.6329,7.0827 C5.2089,6.0017 5.9219,5.0907 7.1349,4.7067 C9.2799,4.0247 11.5249,5.5947 11.5459,7.8417 C11.5539,8.6017 11.3449,9.3637 11.2169,10.1237 C11.0939,10.8517 11.1539,11.5567 11.4449,12.2357 C11.6579,12.7307 12.0049,13.0927 12.5179,13.2847 C12.5659,13.3027 12.6119,13.3267 12.6599,13.3437 C12.9069,13.4287 13.0239,13.6057 12.9449,13.8517 C12.8539,14.1367 12.6109,14.1527 12.3729,14.0757 C11.4899,13.7857 10.9059,13.1787 10.6259,12.3077 C10.4739,11.8367 10.4079,11.3377 10.3139,10.8997" id="Fill-5" fill="#FEFEFE"></path>
                <path d="M8.1699,1.4241 C10.5199,1.5451 12.2789,2.6381 13.6769,4.4171 C13.8479,4.6341 13.9119,4.8651 13.6569,5.0531 C13.4029,5.2411 13.2069,5.1081 13.0379,4.8891 C12.0599,3.6331 10.8519,2.7021 9.2569,2.4131 C7.2329,2.0461 5.4569,2.5381 4.0749,4.1301 C3.6809,4.5841 3.3489,5.0931 2.9999,5.5861 C2.8399,5.8131 2.6829,6.0271 2.3799,5.8361 C2.0889,5.6531 2.1659,5.4121 2.3199,5.1701 C3.2199,3.7631 4.2269,2.4581 5.8949,1.9191 C6.6299,1.6811 7.4099,1.5851 8.1699,1.4241" id="Fill-7" fill="#FEFEFE"></path>
                <path d="M7.9306,0.0003 C9.8556,0.0473 11.4346,0.5013 12.8236,1.5383 C12.9166,1.6063 13.0096,1.6773 13.0956,1.7543 C13.2666,1.9083 13.3746,2.1293 13.1806,2.2813 C13.0476,2.3873 12.7906,2.3923 12.6056,2.3543 C12.4586,2.3273 12.3376,2.1673 12.2016,2.0683 C10.0256,0.5123 6.9046,0.3583 4.7036,1.7333 C4.2726,2.0033 3.9016,2.3743 3.5266,2.7223 C3.3206,2.9133 3.1186,3.0293 2.8906,2.8293 C2.6596,2.6243 2.7466,2.3893 2.9296,2.1853 C3.9266,1.0643 5.1906,0.4263 6.6486,0.1553 C7.1396,0.0643 7.6416,0.0333 7.9306,0.0003" id="Fill-9" fill="#FEFEFE"></path>
                <path d="M8.5971,8.1975 C8.4951,8.4195 8.4321,8.5725 8.3551,8.7195 C7.6271,10.0955 6.5781,11.2105 5.4261,12.2275 C4.8191,12.7635 4.1611,13.2415 3.5261,13.7455 C3.2921,13.9305 3.0271,14.0425 2.8291,13.7415 C2.6531,13.4735 2.8211,13.2725 3.0581,13.1015 C4.4851,12.0735 5.8201,10.9425 6.8821,9.5285 C7.2191,9.0785 7.4661,8.5625 7.7891,8.1005 C7.8761,7.9775 8.0971,7.8755 8.2441,7.8905 C8.3731,7.9035 8.4841,8.0935 8.5971,8.1975" id="Fill-11" fill="#FEFEFE"></path>
                <g id="Group-15" transform="translate(13.000000, 5.677700)">
                    <mask id="mask-4" fill="white">
                        <use xlink:href="#path-3"></use>
                    </mask>
                    <g id="Clip-14"></g>
                    <path d="M1.4692,2.7064 C1.3382,3.6434 1.2322,4.4164 1.1202,5.1894 C1.0782,5.4854 0.8972,5.6264 0.6062,5.5594 C0.3442,5.4964 0.2872,5.2944 0.3402,5.0464 C0.6522,3.5744 0.7902,2.1074 0.2642,0.6444 C0.2162,0.5124 0.3352,0.2154 0.4612,0.1444 C0.6862,0.0184 0.9382,0.1344 0.9982,0.4064 C1.1792,1.2144 1.3322,2.0274 1.4692,2.7064" id="Fill-13" fill="#FEFEFE" mask="url(#mask-4)"></path>
                </g>
                <g id="Group-18" transform="translate(5.000000, 12.677700)">
                    <mask id="mask-6" fill="white">
                        <use xlink:href="#path-5"></use>
                    </mask>
                    <g id="Clip-17"></g>
                    <path d="M2.4951,0.9124 C3.2581,0.9284 3.6581,1.3144 3.9321,1.8604 C4.0391,2.0754 4.1401,2.3094 4.1621,2.5444 C4.1741,2.6794 4.0571,2.8944 3.9381,2.9564 C3.7461,3.0554 3.5391,2.9874 3.4391,2.7464 C3.3411,2.5114 3.2561,2.2654 3.1221,2.0514 C2.8761,1.6574 2.5561,1.5924 2.1831,1.8674 C1.9161,2.0634 1.6841,2.3074 1.4441,2.5374 C1.2591,2.7134 1.0601,2.8284 0.8441,2.6154 C0.6461,2.4214 0.6761,2.1884 0.8571,1.9994 C1.3421,1.4894 1.8141,0.9504 2.4951,0.9124" id="Fill-16" fill="#FEFEFE" mask="url(#mask-6)"></path>
                </g>
                <path d="M8.8251,12.4905 C8.9231,12.1495 8.9841,11.7915 9.1361,11.4755 C9.1951,11.3525 9.4691,11.2525 9.6241,11.2765 C9.8611,11.3115 9.9371,11.5515 9.8401,11.7645 C9.3751,12.8015 9.8521,13.5425 10.5781,14.2125 C10.6631,14.2905 10.7571,14.3595 10.8431,14.4365 C11.0091,14.5895 11.1071,14.7615 10.9501,14.9755 C10.7921,15.1945 10.5701,15.2105 10.3751,15.0645 C9.5211,14.4245 8.8821,13.6505 8.8251,12.4905" id="Fill-19" fill="#FEFEFE"></path>
            </g>
            <g id="Group-5" transform="translate(85.000000, 0.000000)" stroke="#FFFFFF">
                <g id="Group-4">
                    <path d="M3.12090885,10.5 L5.37579304,10.5 C7.7480055,6.2976386 8.47482274,3.46209208 7.66241781,2.07168379 C6.43142938,-0.0351184218 2.32981019,-0.0216112185 0.900167374,2.09894326 C-0.0146679519,3.45589629 0.683228439,6.27882125 3.12090885,10.5 Z" id="Rectangle-2"></path>
                    <rect id="Rectangle-3" x="3.33333333" y="12.5" width="1.83333333" height="2"></rect>
                </g>
            </g>
        </g>
    </g>
</svg>