<?xml version="1.0" encoding="UTF-8"?>
<svg width="16px" height="17px" viewBox="0 0 16 17" version="1.1" xmlns="http://www.w3.org/2000/svg" xmlns:xlink="http://www.w3.org/1999/xlink">
    <!-- Generator: Sketch 47.1 (45422) - http://www.bohemiancoding.com/sketch -->
    <title>Page 1</title>
    <desc>Created with Sketch.</desc>
    <defs>
        <polygon id="path-1" points="15.61 0.3002 15.61 17 0 17 0 0.3002 15.61 0.3002"></polygon>
    </defs>
    <g id="Wireframes" stroke="none" stroke-width="1" fill="none" fill-rule="evenodd">
        <g id="Printing-Copy" transform="translate(-656.000000, -608.000000)">
            <g id="Page-1" transform="translate(656.000000, 607.000000)">
                <path d="M11.1195,11.6933 L4.6175,11.6933 C4.2005,11.6933 3.8615,11.3553 3.8615,10.9383 L3.8615,10.8083 C3.8615,10.3913 4.2005,10.0533 4.6175,10.0533 L11.1195,10.0533 C11.5365,10.0533 11.8745,10.3913 11.8745,10.8083 L11.8745,10.9383 C11.8745,11.3553 11.5365,11.6933 11.1195,11.6933" id="Fill-1" fill="#FEFEFE"></path>
                <path d="M11.1195,9.2558 L4.6175,9.2558 C4.2005,9.2558 3.8615,8.9178 3.8615,8.5008 L3.8615,8.3708 C3.8615,7.9538 4.2005,7.6158 4.6175,7.6158 L11.1195,7.6158 C11.5365,7.6158 11.8745,7.9538 11.8745,8.3708 L11.8745,8.5008 C11.8745,8.9178 11.5365,9.2558 11.1195,9.2558" id="Fill-3" fill="#FEFEFE"></path>
                <g id="Group-7" transform="translate(0.000000, 0.700000)">
                    <mask id="mask-2" fill="white">
                        <use xlink:href="#path-1"></use>
                    </mask>
                    <g id="Clip-6"></g>
                    <path d="M12.4447,16.0002 L9.3447,16.0002 C9.3757,15.9202 9.3947,15.8302 9.3947,15.7402 L9.3947,13.1702 C9.3947,12.7602 9.0547,12.4202 8.6447,12.4202 L6.9657,12.4202 C6.5547,12.4202 6.2157,12.7602 6.2157,13.1702 L6.2157,15.7402 C6.2157,15.8302 6.2357,15.9202 6.2647,16.0002 L3.1647,16.0002 L3.1647,6.5102 L3.4547,6.2102 L7.9657,1.5302 L12.2747,6.2102 L12.4447,6.3902 L12.4447,16.0002 Z M15.4747,8.2202 L13.3647,5.9302 L13.2857,5.8302 L8.3447,0.4602 C8.2557,0.3602 8.1247,0.3002 7.9857,0.3002 C7.8447,0.3002 7.7157,0.3602 7.6147,0.4602 L3.1647,5.0802 L3.1647,1.3602 C3.1647,1.0802 2.9347,0.8602 2.6647,0.8602 C2.3847,0.8602 2.1647,1.0802 2.1647,1.3602 L2.1647,6.1102 L2.1747,6.1102 C2.1647,6.1402 2.1647,6.1702 2.1647,6.2102 L2.1647,6.1102 L0.1447,8.2102 C-0.0553,8.4102 -0.0453,8.7202 0.1547,8.9202 C0.3547,9.1102 0.6647,9.1002 0.8647,8.9002 L2.1647,7.5502 L2.1647,17.0002 L13.4447,17.0002 L13.4447,7.4802 L14.7457,8.8902 C14.8447,9.0002 14.9747,9.0602 15.1047,9.0602 C15.2347,9.0602 15.3547,9.0102 15.4447,8.9202 C15.6547,8.7402 15.6657,8.4202 15.4747,8.2202 L15.4747,8.2202 Z" id="Fill-5" fill="#FEFEFE" mask="url(#mask-2)"></path>
                </g>
            </g>
        </g>
    </g>
</svg>